<?xml version="1.0" encoding="UTF-8"?>
<svg version="1.1" xmlns="http://www.w3.org/2000/svg" width="576" height="576">
<path d="M0 0 C11.67651629 10.06167893 20.05907756 22.37099433 25 37 C25.31839844 37.92167969 25.63679687 38.84335938 25.96484375 39.79296875 C30.47279521 55.51886392 29.52182342 73.71912062 24 89 C23.71125 89.89332031 23.4225 90.78664063 23.125 91.70703125 C16.47869653 110.54811475 0.84286062 125.58334623 -16.74633789 134.26635742 C-28.80945018 139.90884949 -41.35905763 142.18640351 -54.62768555 141.93432617 C-82.89181441 141.40782688 -108.64589076 147.59684758 -130 167 C-130.63164062 167.55042969 -131.26328125 168.10085937 -131.9140625 168.66796875 C-147.79637959 183.3536729 -157.82258502 206.65234508 -159 228 C-159.06578234 231.95909562 -159.03656934 235.91567739 -159 239.875 C-158.78806513 264.56636696 -163.86496972 287.0641033 -181.22705078 305.44213867 C-196.39274658 320.71868793 -216.52573794 329.04789807 -237.9609375 329.17578125 C-239.50131523 329.19901422 -241.0416798 329.22313286 -242.58203125 329.24804688 C-244.96183671 329.28276552 -247.34116645 329.31230636 -249.72119141 329.32592773 C-277.29572315 329.51376514 -301.04185908 338.65737325 -321.1875 357.875 C-340.93136621 378.37063667 -346.31159589 404.63140333 -346.38085938 432.07128906 C-346.44024142 446.1270183 -347.93911648 459.7275104 -354.75 472.3125 C-355.26324829 473.29657837 -355.26324829 473.29657837 -355.78686523 474.30053711 C-365.9658352 493.31662974 -381.27664591 506.25188972 -401.76171875 513.29296875 C-423.77719289 519.7736131 -444.7015442 517.84831499 -465.0546875 507.4375 C-472.25632791 503.47934649 -478.19362389 498.7965348 -484 493 C-485.04800781 491.96939453 -485.04800781 491.96939453 -486.1171875 490.91796875 C-499.75706056 476.61467774 -507.10418554 456.52266304 -507.03125 436.87109375 C-506.54049899 417.56895409 -500.14687789 398.4261807 -487 384 C-486.28457031 383.19304687 -485.56914062 382.38609375 -484.83203125 381.5546875 C-470.7618273 366.54340955 -451.5830146 357.54927651 -430.93945312 356.81567383 C-425.62872471 356.68754508 -420.31634619 356.63262478 -415.00415039 356.61914062 C-391.79028986 356.52053657 -371.45842016 350.29280372 -353 336 C-352.19046875 335.37480469 -351.3809375 334.74960937 -350.546875 334.10546875 C-332.58231751 319.18734846 -321.92781362 296.35096414 -319.2578125 273.4375 C-318.82480443 267.67495233 -318.99730285 261.89866191 -319.0625 256.125 C-319.21626107 240.97412058 -317.80590533 227.76781995 -311 214 C-310.58105469 213.08992187 -310.16210938 212.17984375 -309.73046875 211.2421875 C-305.7778381 203.24579928 -300.24131573 197.25029604 -294 191 C-293.34128906 190.3296875 -292.68257812 189.659375 -292.00390625 188.96875 C-283.59275983 181.00981575 -272.12194735 175.03599103 -261 172 C-260.36860107 171.82557373 -259.73720215 171.65114746 -259.08666992 171.47143555 C-249.69783697 169.22258316 -239.98717637 169.61818492 -230.39038086 169.54370117 C-201.99839406 169.2817453 -177.70635762 161.07541598 -157 141 C-154.03902967 137.8389641 -151.46772841 134.55689639 -149 131 C-148.32324219 130.02546875 -147.64648438 129.0509375 -146.94921875 128.046875 C-134.28781094 108.68517417 -131.54669966 87.87636351 -131.56420898 65.22680664 C-131.54127821 51.39343754 -129.91374925 38.01649309 -123.25 25.625 C-122.90638428 24.96491943 -122.56276855 24.30483887 -122.20874023 23.62475586 C-119.11014916 17.85591459 -115.43002973 12.82813947 -111 8 C-110.33613281 7.24460937 -109.67226563 6.48921875 -108.98828125 5.7109375 C-80.60206479 -24.82654491 -31.71009301 -25.56221783 0 0 Z " fill="#000000" transform="translate(526,38)"/>
<path d="M0 0 C16.87722475 14.03027444 26.95467495 32.19553349 30.11083984 54.03710938 C32.10886445 76.08507855 26.20188019 95.87782642 12.75927734 113.49414062 C-0.18104001 128.98781562 -18.51747966 140.4839445 -38.88964844 142.55712891 C-41.46498284 142.72435841 -44.036632 142.8396324 -46.61572266 142.93164062 C-47.53772461 142.9717627 -48.45972656 143.01188477 -49.40966797 143.05322266 C-54.51053794 143.25900347 -59.5731756 143.29994994 -64.67822266 143.18164062 C-87.20377331 143.04819542 -108.44850704 151.74396637 -125.42822266 166.30664062 C-126.02892578 166.76296875 -126.62962891 167.21929687 -127.24853516 167.68945312 C-144.04355977 180.73489085 -153.55834465 203.77680172 -156.42822266 224.30664062 C-156.53980994 226.96953472 -156.61187114 229.6121328 -156.63916016 232.27539062 C-156.6672605 233.83269223 -156.69592511 235.38998374 -156.72509766 236.94726562 C-156.766003 239.3645768 -156.80294787 241.78170614 -156.82958984 244.19921875 C-157.13704992 269.962253 -164.01638935 291.69345414 -182.70410156 310.12402344 C-197.27102989 323.78825127 -216.86721413 330.9426384 -236.67822266 330.74414062 C-237.76868896 330.73511719 -238.85915527 330.72609375 -239.98266602 330.71679688 C-263.10869689 330.2242078 -281.67257919 320.61872158 -297.61572266 304.11914062 C-310.98344564 288.86296153 -318.1763917 268.68842325 -317.67431641 248.36914062 C-315.85813813 225.76781099 -307.4002525 205.80284179 -290.42822266 190.30664062 C-276.56822868 178.88384668 -259.72269084 171.28140576 -241.62744141 171.09570312 C-240.07599946 171.06758494 -238.52456734 171.03892031 -236.97314453 171.00976562 C-234.56258971 170.96897872 -232.15220824 170.93204581 -229.74145508 170.90527344 C-201.9937301 170.57148353 -176.55077439 163.42847727 -156.42822266 143.45898438 C-143.45884506 130.05425363 -135.67582228 114.44893053 -131.42822266 96.30664062 C-131.25331299 95.58234863 -131.07840332 94.85805664 -130.89819336 94.11181641 C-130.30341906 90.56170904 -130.25395517 87.05966038 -130.21728516 83.47070312 C-130.1891728 81.91470381 -130.16050817 80.3587144 -130.13134766 78.80273438 C-130.09051346 76.38330851 -130.05358072 73.96405846 -130.02685547 71.54443359 C-129.72654253 46.44759232 -123.74435041 23.71405827 -105.65478516 5.34960938 C-77.27369708 -22.13117228 -30.99260135 -24.5619992 0 0 Z " fill="#000000" transform="translate(545.42822265625,245.693359375)"/>
<path d="M0 0 C18.20324714 14.28609269 29.44854621 33.05222835 32.62109375 55.9921875 C34.791559 78.17916566 28.42965214 99.5274379 14.46875 116.89453125 C1.20459732 132.47616683 -17.80829537 143.00032887 -38.30978394 145.09298706 C-43.58874002 145.42466255 -48.87254153 145.43361881 -54.16015625 145.4296875 C-83.24720923 145.47592103 -107.57299455 153.28745088 -129.16015625 173.5546875 C-144.26501789 189.1477871 -154.08478 211.05395709 -154.30859375 232.80078125 C-154.33669987 234.35352549 -154.3653645 235.9062597 -154.39453125 237.45898438 C-154.43538937 239.86742449 -154.4723349 242.27568527 -154.49902344 244.68432617 C-154.80140313 269.88871627 -160.95208752 292.6000565 -179.12890625 311.08203125 C-194.62097829 326.03475728 -215.4029184 333.42938952 -236.75048828 333.22119141 C-248.56725135 332.84104913 -259.44730342 330.0011283 -270.09765625 324.8671875 C-271.0103125 324.44824219 -271.92296875 324.02929688 -272.86328125 323.59765625 C-280.8533854 319.63684748 -286.84812724 314.1077373 -293.09765625 307.8671875 C-293.76796875 307.20847656 -294.43828125 306.54976563 -295.12890625 305.87109375 C-310.43781716 289.69235836 -314.63253984 268.76763188 -314.37109375 247.265625 C-313.76163231 226.69479277 -303.87433086 207.5146284 -288.94921875 193.44140625 C-270.2981005 177.5840209 -249.25966108 172.67954832 -225.27856445 172.90869141 C-200.3241521 173.13590998 -178.19528415 166.24629185 -159.09765625 149.8671875 C-158.49695313 149.41085938 -157.89625 148.95453125 -157.27734375 148.484375 C-141.40802142 136.15797114 -131.91327049 114.51499444 -128.51269531 95.22827148 C-127.55097938 87.44006954 -127.70393129 79.53793805 -127.64135742 71.69995117 C-127.40503757 46.7824903 -120.91427029 25.98629074 -103.09765625 7.8671875 C-102.06705078 6.81724609 -102.06705078 6.81724609 -101.015625 5.74609375 C-73.78857507 -20.16759199 -30.22776149 -20.81255709 0 0 Z " fill="#000000" transform="translate(314.09765625,14.1328125)"/>
</svg>
