<svg width="27" height="28" viewBox="0 0 27 28" fill="none" xmlns="http://www.w3.org/2000/svg">
<path d="M20.3489 12.3698C19.9699 12.7511 19.6797 13.2113 19.4989 13.7175C19.3181 14.2238 19.2512 14.7637 19.3029 15.2988L19.2849 15.2808C19.3381 15.9107 19.2531 16.5445 19.036 17.1382C18.8189 17.7318 18.4749 18.2709 18.028 18.7179C17.581 19.1648 17.0419 19.5089 16.4482 19.7259C15.8546 19.943 15.2207 20.028 14.5909 19.9748L14.6089 19.9928C13.8555 19.9227 13.0988 20.0866 12.4419 20.4623C11.7851 20.838 11.2601 21.4071 10.9386 22.0921C10.6171 22.7771 10.5146 23.5445 10.6452 24.2899C10.7759 25.0352 11.1332 25.7221 11.6685 26.2569C12.2038 26.7917 12.891 27.1484 13.6364 27.2783C14.3819 27.4083 15.1492 27.3051 15.8339 26.983C16.5186 26.6608 17.0872 26.1354 17.4623 25.4782C17.8374 24.821 18.0007 24.0642 17.9299 23.3108L17.9489 23.3288C17.8957 22.699 17.9806 22.0651 18.1977 21.4714C18.4148 20.8778 18.7589 20.3387 19.2058 19.8917C19.6528 19.4448 20.1919 19.1007 20.7855 18.8837C21.3792 18.6666 22.013 18.5816 22.6429 18.6348L22.6239 18.6168C23.2393 18.6721 23.8588 18.5712 24.4249 18.3234C24.9909 18.0756 25.4853 17.6889 25.8621 17.1992C26.2389 16.7095 26.4861 16.1325 26.5805 15.5219C26.675 14.9112 26.6138 14.2866 26.4026 13.7058C26.1914 13.1251 25.837 12.6071 25.3723 12.1998C24.9076 11.7925 24.3476 11.5091 23.7442 11.3759C23.1408 11.2427 22.5135 11.2639 21.9205 11.4376C21.3275 11.6114 20.788 11.932 20.3519 12.3698H20.3489Z" fill="white"/>
<path d="M12.9719 17.6348L12.9529 17.6168C13.4882 17.6707 14.0288 17.605 14.5357 17.4244C15.0425 17.2438 15.5029 16.9529 15.8835 16.5726C16.264 16.1923 16.5554 15.7321 16.7363 15.2254C16.9173 14.7187 16.9834 14.1782 16.9299 13.6428L16.9489 13.6608C16.8957 13.0309 16.9807 12.3971 17.1977 11.8034C17.4148 11.2098 17.7589 10.6707 18.2058 10.2237C18.6528 9.77678 19.1919 9.43268 19.7855 9.21568C20.3792 8.99854 21.013 8.91361 21.6429 8.96678L21.6239 8.94878C22.3774 9.01958 23.1343 8.85613 23.7915 8.48088C24.4488 8.10562 24.9742 7.53675 25.2962 6.85188C25.6182 6.16702 25.7211 5.39949 25.5909 4.65398C25.4607 3.90847 25.1037 3.22129 24.5685 2.68615C24.0334 2.15102 23.3462 1.79398 22.6007 1.66376C21.8552 1.53353 21.0877 1.63644 20.4028 1.95846C19.7179 2.28047 19.1491 2.80592 18.7738 3.46313C18.3985 4.12033 18.2351 4.8773 18.3059 5.63078L18.2879 5.61178C18.3412 6.24167 18.2564 6.87561 18.0394 7.46933C17.8224 8.06305 17.4783 8.60224 17.0314 9.04928C16.5844 9.49618 16.0452 9.84028 15.4515 10.0573C14.8577 10.2743 14.2238 10.3591 13.5939 10.3058L13.6119 10.3248C13.0766 10.2709 12.5359 10.3366 12.0291 10.5172C11.5223 10.6977 11.0619 10.9887 10.6813 11.369C10.3007 11.7493 10.0094 12.2095 9.8284 12.7162C9.6475 13.2229 9.5814 13.7634 9.6349 14.2988L9.6169 14.2808C9.6699 14.9106 9.5848 15.5444 9.3677 16.138C9.1505 16.7315 8.8065 17.2706 8.3596 17.7175C7.91266 18.1644 7.37362 18.5084 6.78006 18.7256C6.1865 18.9427 5.55271 19.0278 4.9229 18.9748L4.9409 18.9928C4.18742 18.922 3.43045 19.0854 2.77324 19.4607C2.11604 19.836 1.59059 20.4048 1.26858 21.0897C0.946563 21.7746 0.843643 22.5421 0.973873 23.2876C1.1041 24.0331 1.46114 24.7203 1.99627 25.2554C2.53141 25.7906 3.21859 26.1476 3.9641 26.2778C4.70961 26.408 5.47714 26.3051 6.16201 25.9831C6.84687 25.6611 7.41574 25.1357 7.791 24.4785C8.1663 23.8212 8.3297 23.0643 8.2589 22.3108L8.2779 22.3288C8.2247 21.6989 8.3097 21.0651 8.5268 20.4714C8.7438 19.8778 9.0879 19.3387 9.5348 18.8917C9.9818 18.4448 10.5209 18.1007 11.1145 17.8837C11.7082 17.6666 12.342 17.5816 12.9719 17.6348Z" fill="white"/>
<path d="M6.2699 15.628C6.64892 15.2468 6.9391 14.7866 7.11974 14.2803C7.30038 13.774 7.36702 13.234 7.3149 12.699L7.33389 12.717C7.28069 12.087 7.36565 11.4529 7.58286 10.8591C7.80007 10.2653 8.1443 9.72606 8.5915 9.27906C9.0387 8.83208 9.578 8.48809 10.1719 8.27114C10.7658 8.05418 11.3999 7.96948 12.0299 8.02296L12.0109 8.00496C12.7641 8.07553 13.5208 7.91204 14.1777 7.5368C14.8346 7.16157 15.3597 6.59284 15.6816 5.90819C16.0034 5.22353 16.1062 4.45628 15.976 3.71105C15.8458 2.96582 15.4888 2.2789 14.9539 1.74396C14.419 1.20902 13.732 0.852103 12.9868 0.721883C12.2416 0.591653 11.4743 0.694473 10.7897 1.01629C10.105 1.33811 9.5363 1.86328 9.1611 2.52018C8.7858 3.17708 8.6223 3.93374 8.6929 4.68696L8.6749 4.66896C8.7281 5.29881 8.6431 5.93268 8.426 6.52632C8.2089 7.11996 7.86492 7.65907 7.41796 8.10603C6.97101 8.55299 6.43189 8.89702 5.83825 9.11406C5.24461 9.33116 4.61075 9.41616 3.9809 9.36296L3.9989 9.38096C3.38347 9.32576 2.76406 9.42686 2.19808 9.67476C1.6321 9.92266 1.13785 10.3095 0.761139 10.7993C0.384429 11.289 0.137449 11.866 0.0430689 12.4766C-0.0513011 13.0873 0.0099889 13.7119 0.221259 14.2925C0.432529 14.8732 0.786959 15.3911 1.25169 15.7983C1.71642 16.2056 2.27642 16.4889 2.8798 16.6221C3.48317 16.7552 4.1104 16.7339 4.70337 16.5602C5.29633 16.3864 5.83583 16.0658 6.27189 15.628H6.2699Z" fill="white"/>
</svg>
