<svg width="27" height="27" viewBox="0 0 27 27" fill="none" xmlns="http://www.w3.org/2000/svg">
<path d="M20.349 11.703C19.97 12.0843 19.6798 12.5445 19.499 13.0507C19.3182 13.557 19.2513 14.0969 19.303 14.632L19.285 14.614C19.3382 15.2439 19.2532 15.8777 19.0361 16.4714C18.819 17.065 18.475 17.6041 18.0281 18.0511C17.5811 18.498 17.042 18.8421 16.4483 19.0591C15.8547 19.2762 15.2208 19.3612 14.591 19.308L14.609 19.326C13.8556 19.2559 13.0989 19.4198 12.442 19.7955C11.7852 20.1712 11.2602 20.7403 10.9387 21.4253C10.6172 22.1103 10.5147 22.8777 10.6453 23.6231C10.776 24.3684 11.1333 25.0553 11.6686 25.5901C12.2039 26.1249 12.8911 26.4816 13.6365 26.6115C14.382 26.7415 15.1493 26.6383 15.834 26.3162C16.5187 25.994 17.0873 25.4686 17.4624 24.8114C17.8375 24.1542 18.0008 23.3974 17.93 22.644L17.949 22.662C17.8958 22.0322 17.9807 21.3983 18.1978 20.8046C18.4149 20.211 18.759 19.6719 19.2059 19.2249C19.6529 18.778 20.192 18.4339 20.7856 18.2169C21.3793 17.9998 22.0131 17.9148 22.643 17.968L22.624 17.95C23.2394 18.0053 23.8589 17.9044 24.425 17.6566C24.991 17.4088 25.4854 17.0221 25.8622 16.5324C26.239 16.0427 26.4862 15.4657 26.5806 14.8551C26.6751 14.2444 26.6139 13.6198 26.4027 13.039C26.1915 12.4583 25.8371 11.9403 25.3724 11.533C24.9077 11.1257 24.3477 10.8423 23.7443 10.7091C23.1409 10.5759 22.5136 10.5971 21.9206 10.7708C21.3276 10.9446 20.7881 11.2652 20.352 11.703H20.349Z" fill="black"/>
<path d="M12.9718 16.968L12.9528 16.95C13.4881 17.0039 14.0287 16.9382 14.5356 16.7576C15.0424 16.577 15.5028 16.2861 15.8834 15.9058C16.2639 15.5255 16.5553 15.0653 16.7362 14.5586C16.9172 14.0519 16.9833 13.5114 16.9298 12.976L16.9488 12.994C16.8956 12.3641 16.9806 11.7303 17.1976 11.1366C17.4147 10.543 17.7588 10.0039 18.2057 9.55687C18.6527 9.10997 19.1918 8.76587 19.7854 8.54887C20.3791 8.33173 21.0129 8.2468 21.6428 8.29997L21.6238 8.28197C22.3773 8.35277 23.1342 8.18933 23.7914 7.81407C24.4487 7.43881 24.9741 6.86994 25.2961 6.18507C25.6181 5.50021 25.721 4.73268 25.5908 3.98717C25.4606 3.24166 25.1036 2.55448 24.5684 2.01934C24.0333 1.48421 23.3461 1.12717 22.6006 0.996946C21.8551 0.866716 21.0876 0.969626 20.4027 1.29165C19.7178 1.61366 19.149 2.13911 18.7737 2.79632C18.3984 3.45352 18.235 4.21049 18.3058 4.96397L18.2878 4.94497C18.3411 5.57486 18.2563 6.2088 18.0393 6.80252C17.8223 7.39624 17.4782 7.93543 17.0313 8.38247C16.5843 8.82937 16.0451 9.17347 15.4514 9.39047C14.8576 9.60747 14.2237 9.69227 13.5938 9.63897L13.6118 9.65797C13.0765 9.60407 12.5358 9.66977 12.029 9.85037C11.5222 10.0309 11.0618 10.3219 10.6812 10.7022C10.3006 11.0825 10.0093 11.5427 9.82834 12.0494C9.64744 12.5561 9.58134 13.0966 9.63484 13.632L9.61684 13.614C9.66984 14.2438 9.58474 14.8776 9.36764 15.4712C9.15044 16.0647 8.80644 16.6038 8.35954 17.0507C7.9126 17.4976 7.37356 17.8416 6.78 18.0588C6.18644 18.2759 5.55265 18.361 4.92284 18.308L4.94084 18.326C4.18736 18.2552 3.43039 18.4186 2.77318 18.7939C2.11598 19.1692 1.59053 19.738 1.26852 20.4229C0.946502 21.1078 0.843582 21.8753 0.973812 22.6208C1.10404 23.3663 1.46108 24.0535 1.99621 24.5886C2.53135 25.1238 3.21853 25.4808 3.96404 25.611C4.70955 25.7412 5.47708 25.6383 6.16195 25.3163C6.84681 24.9943 7.41568 24.4689 7.79094 23.8117C8.16624 23.1544 8.32964 22.3975 8.25884 21.644L8.27784 21.662C8.22464 21.0321 8.30964 20.3983 8.52674 19.8046C8.74374 19.211 9.08784 18.6719 9.53474 18.2249C9.98174 17.778 10.5208 17.4339 11.1144 17.2169C11.7081 16.9998 12.3419 16.9148 12.9718 16.968Z" fill="black"/>
<path d="M6.2699 14.961C6.64892 14.5798 6.9391 14.1196 7.11974 13.6133C7.30038 13.107 7.36702 12.567 7.3149 12.032L7.33389 12.05C7.28069 11.42 7.36565 10.7859 7.58286 10.1921C7.80007 9.59827 8.1443 9.05907 8.5915 8.61207C9.0387 8.16509 9.578 7.8211 10.1719 7.60415C10.7658 7.38719 11.3999 7.30249 12.0299 7.35597L12.0109 7.33797C12.7641 7.40854 13.5208 7.24505 14.1777 6.86981C14.8346 6.49458 15.3597 5.92585 15.6816 5.2412C16.0034 4.55654 16.1062 3.78929 15.976 3.04406C15.8458 2.29883 15.4888 1.61191 14.9539 1.07697C14.419 0.54203 13.732 0.18511 12.9868 0.0548905C12.2416 -0.0753395 11.4743 0.0274805 10.7897 0.3493C10.105 0.67112 9.5363 1.19629 9.1611 1.85319C8.7858 2.51009 8.6223 3.26675 8.6929 4.01997L8.6749 4.00197C8.7281 4.63182 8.6431 5.26569 8.426 5.85933C8.2089 6.45297 7.86492 6.99208 7.41796 7.43904C6.97101 7.886 6.43189 8.23003 5.83825 8.44707C5.24461 8.66417 4.61075 8.74917 3.9809 8.69597L3.9989 8.71397C3.38347 8.65877 2.76406 8.75987 2.19808 9.00777C1.6321 9.25567 1.13785 9.64247 0.761139 10.1323C0.384429 10.622 0.137449 11.199 0.0430689 11.8096C-0.0513011 12.4203 0.0099889 13.0449 0.221259 13.6255C0.432529 14.2062 0.786959 14.7241 1.25169 15.1313C1.71642 15.5386 2.27642 15.8219 2.8798 15.9551C3.48317 16.0882 4.1104 16.0669 4.70337 15.8932C5.29633 15.7194 5.83583 15.3988 6.27189 14.961H6.2699Z" fill="black"/>
</svg>
